<svg width="83" height="74" viewBox="0 0 83 74" fill="none" xmlns="http://www.w3.org/2000/svg">
<path fill-rule="evenodd" clip-rule="evenodd" d="M35.2221 13.601C36.7844 12.5572 38.6211 12 40.5 12C43.0196 12 45.4359 13.0009 47.2175 14.7825C48.9991 16.5641 50 18.9804 50 21.5C50 23.3789 49.4428 25.2157 48.399 26.7779C47.3551 28.3402 45.8714 29.5578 44.1355 30.2769C42.3996 30.9959 40.4895 31.184 38.6466 30.8175C36.8038 30.4509 35.1111 29.5461 33.7825 28.2175C32.4539 26.8889 31.5491 25.1962 31.1825 23.3534C30.816 21.5105 31.0041 19.6004 31.7232 17.8645C32.4422 16.1286 33.6598 14.6449 35.2221 13.601ZM36.8888 26.9046C37.9577 27.6188 39.2144 28 40.5 28C42.2239 28 43.8772 27.3152 45.0962 26.0962C46.3152 24.8772 47 23.2239 47 21.5C47 20.2144 46.6188 18.9577 45.9046 17.8888C45.1903 16.8199 44.1752 15.9868 42.9874 15.4948C41.7997 15.0028 40.4928 14.8741 39.2319 15.1249C37.971 15.3757 36.8129 15.9948 35.9038 16.9038C34.9948 17.8128 34.3757 18.971 34.1249 20.2319C33.8741 21.4928 34.0028 22.7997 34.4948 23.9874C34.9868 25.1752 35.8199 26.1903 36.8888 26.9046ZM25.3045 6.30451C29.3351 2.27391 34.7999 0.00661652 40.5 0C46.2001 0.00661652 51.6649 2.27391 55.6955 6.30451C59.7261 10.3351 61.9934 15.7999 62 21.5C62 28.4177 59.1326 35.7072 53.675 42.75H64.2586C65.3751 42.75 66.4134 43.3231 67.0085 44.2678L82.1264 68.2678C83.4897 70.432 81.9343 73.25 79.3765 73.25H3.39977C0.921429 73.25 -0.644944 70.5874 0.559059 68.4211L13.8983 44.4211C14.4716 43.3897 15.559 42.75 16.7391 42.75H27.3252C21.8675 35.706 19 28.411 19 21.5C19.0066 15.7999 21.2739 10.3351 25.3045 6.30451ZM29.3805 45.25H16.7391C16.4667 45.25 16.2158 45.3976 16.0835 45.6356L2.74422 69.6356C2.46638 70.1355 2.82784 70.75 3.39977 70.75H79.3765C79.9667 70.75 80.3257 70.0997 80.0111 69.6003L64.8932 45.6003C64.7559 45.3823 64.5163 45.25 64.2586 45.25H51.6195C48.5615 48.7818 45.1205 51.963 41.36 54.735C41.1079 54.9114 40.8077 55.006 40.5 55.006C40.1923 55.006 39.8921 54.9114 39.64 54.735C35.8795 51.963 32.4385 48.7818 29.3805 45.25ZM22 21.5C22 36.405 36.75 48.7325 40.5 51.6275C44.25 48.7325 59 36.405 59 21.5C59 16.5935 57.0509 11.8879 53.5815 8.41852C50.1121 4.9491 45.4065 3 40.5 3C35.5935 3 30.888 4.9491 27.4185 8.41852C23.9491 11.8879 22 16.5935 22 21.5Z" fill="#757575"/>
</svg>
