<?xml version="1.0" standalone="no"?>
<!DOCTYPE svg PUBLIC "-//W3C//DTD SVG 20010904//EN"
 "http://www.w3.org/TR/2001/REC-SVG-20010904/DTD/svg10.dtd">
<svg version="1.0" xmlns="http://www.w3.org/2000/svg"
 width="512.000000pt" height="512.000000pt" viewBox="0 0 512.000000 512.000000"
 preserveAspectRatio="xMidYMid meet">

<g transform="translate(0.000000,512.000000) scale(0.100000,-0.100000)"
fill="#000000" stroke="none">
<path d="M2482 4620 c-33 -15 -47 -29 -62 -62 -18 -40 -20 -69 -20 -478 0
-409 2 -438 20 -478 15 -33 29 -47 62 -62 88 -40 184 -12 218 62 18 40 20 69
20 478 0 409 -2 438 -20 478 -22 48 -79 82 -140 82 -19 0 -54 -9 -78 -20z"/>
<path d="M657 4136 c-50 -18 -62 -30 -86 -80 -26 -52 -27 -112 -3 -151 10 -16
132 -165 271 -330 264 -314 297 -345 369 -345 77 0 151 59 167 131 15 66 -6
98 -283 426 -147 174 -281 325 -297 334 -44 25 -95 31 -138 15z"/>
<path d="M4343 4123 c-55 -37 -563 -641 -582 -692 -19 -49 -4 -106 40 -156 53
-60 127 -67 200 -18 42 28 539 623 561 672 30 66 18 123 -37 178 -38 39 -47
43 -92 43 -37 0 -59 -7 -90 -27z"/>
<path d="M2375 3354 c-495 -52 -936 -234 -1335 -552 -243 -194 -534 -521 -610
-685 -59 -126 -59 -268 0 -394 77 -167 377 -502 625 -699 641 -508 1433 -669
2170 -443 532 164 1000 503 1373 996 112 147 151 269 131 411 -17 122 -82 229
-267 444 -429 497 -959 802 -1572 903 -91 16 -430 28 -515 19z m495 -339 c568
-95 1064 -413 1471 -943 111 -146 108 -171 -51 -368 -393 -489 -873 -785
-1425 -881 -151 -26 -481 -23 -635 5 -451 83 -841 294 -1195 647 -109 109
-272 303 -303 360 -9 17 -16 53 -16 85 0 68 10 87 121 225 389 486 918 805
1448 874 44 6 94 13 110 15 64 9 385 -4 475 -19z"/>
<path d="M2428 2710 c-315 -57 -553 -272 -640 -577 -32 -112 -32 -314 0 -426
79 -277 282 -480 559 -559 112 -32 314 -32 426 0 277 79 480 282 559 559 32
112 32 314 0 426 -79 275 -282 480 -554 557 -82 24 -272 35 -350 20z m234
-321 c182 -38 329 -185 367 -367 72 -344 -227 -643 -571 -571 -219 46 -378
243 -378 469 0 307 279 532 582 469z"/>
</g>
</svg>
